<svg xmlns="http://www.w3.org/2000/svg" x="0px" y="0px"
width="16" height="16"
viewBox="0 0 172 172"
style=" fill:#000000;"><g fill="none" fill-rule="nonzero" stroke="none" stroke-width="1" stroke-linecap="butt" stroke-linejoin="miter" stroke-miterlimit="10" stroke-dasharray="" stroke-dashoffset="0" font-family="none" font-weight="none" font-size="none" text-anchor="none" style="mix-blend-mode: normal"><path d="M0,172v-172h172v172z" fill="none"></path><g fill="#ffffff"><path d="M86,70.95c-8.31189,0 -15.05,6.73811 -15.05,15.05c0,8.31189 6.73811,15.05 15.05,15.05c8.31189,0 15.05,-6.73811 15.05,-15.05c0,-8.31189 -6.73811,-15.05 -15.05,-15.05z"></path><path d="M86,73.1c7.1122,0 12.9,5.7878 12.9,12.9c0,7.1122 -5.7878,12.9 -12.9,12.9c-7.1122,0 -12.9,-5.7878 -12.9,-12.9c0,-7.1122 5.7878,-12.9 12.9,-12.9M86,68.8c-9.4987,0 -17.2,7.7013 -17.2,17.2c0,9.4987 7.7013,17.2 17.2,17.2c9.4987,0 17.2,-7.7013 17.2,-17.2c0,-9.4987 -7.7013,-17.2 -17.2,-17.2z"></path><path d="M86,15.05c-8.31189,0 -15.05,6.73811 -15.05,15.05c0,8.31189 6.73811,15.05 15.05,15.05c8.31189,0 15.05,-6.73811 15.05,-15.05c0,-8.31189 -6.73811,-15.05 -15.05,-15.05z"></path><path d="M86,17.2c7.1122,0 12.9,5.7878 12.9,12.9c0,7.1122 -5.7878,12.9 -12.9,12.9c-7.1122,0 -12.9,-5.7878 -12.9,-12.9c0,-7.1122 5.7878,-12.9 12.9,-12.9M86,12.9c-9.4987,0 -17.2,7.7013 -17.2,17.2c0,9.4987 7.7013,17.2 17.2,17.2c9.4987,0 17.2,-7.7013 17.2,-17.2c0,-9.4987 -7.7013,-17.2 -17.2,-17.2z"></path><g><path d="M86,126.85c-8.31189,0 -15.05,6.73811 -15.05,15.05c0,8.31189 6.73811,15.05 15.05,15.05c8.31189,0 15.05,-6.73811 15.05,-15.05c0,-8.31189 -6.73811,-15.05 -15.05,-15.05z"></path><path d="M86,129c7.1122,0 12.9,5.7878 12.9,12.9c0,7.1122 -5.7878,12.9 -12.9,12.9c-7.1122,0 -12.9,-5.7878 -12.9,-12.9c0,-7.1122 5.7878,-12.9 12.9,-12.9M86,124.7c-9.4987,0 -17.2,7.7013 -17.2,17.2c0,9.4987 7.7013,17.2 17.2,17.2c9.4987,0 17.2,-7.7013 17.2,-17.2c0,-9.4987 -7.7013,-17.2 -17.2,-17.2z"></path></g></g></g></svg>